<svg xmlns="http://www.w3.org/2000/svg" viewBox="0 0 220 220">
  <rect width="220" height="220" rx="48" fill="#1A1A1A"/>
  <g transform="translate(110 110) scale(1.92)">
    <circle r="50" fill="#141414"/>
    <circle r="48" fill="none" stroke="#F2B705" stroke-width="1.6"/>
    <circle r="43" fill="none" stroke="#F2B705" stroke-width="3" stroke-linecap="round" stroke-dasharray="0.4 6"/>
    <circle r="38.5" fill="none" stroke="#F2B705" stroke-width="1.4"/>
    <path d="M-8,-34 V-26 a8,8 0 0 0 16,0 V-34" fill="none" stroke="#F2B705" stroke-width="4" stroke-linecap="round"/>
    <path d="M0,-26 V-12" stroke="#F2B705" stroke-width="3" stroke-linecap="round"/>
    <circle cx="0" cy="-8.5" r="2.2" fill="#F2B705"/>
    <circle cx="-20" cy="-2" r="13" fill="#E23B33"/>
    <circle cx="-20" cy="-2" r="10.5" fill="#fff"/>
    <circle cx="-20" cy="-2" r="5" fill="#141414"/>
    <circle cx="20" cy="-2" r="13" fill="#E23B33"/>
    <circle cx="20" cy="-2" r="10.5" fill="#fff"/>
    <circle cx="20" cy="-2" r="5" fill="#141414"/>
    <path d="M-4.5,7 a4.5,4 0 0 0 9,0" fill="none" stroke="#F2B705" stroke-width="2" stroke-linecap="round"/>
    <circle cx="-31" cy="16" r="6" fill="#E23B33"/>
    <circle cx="-31" cy="16" r="2.4" fill="#F2B705"/>
    <circle cx="31" cy="16" r="6" fill="#E23B33"/>
    <circle cx="31" cy="16" r="2.4" fill="#F2B705"/>
    <path d="M-22,21 Q0,42 22,21" fill="none" stroke="#E23B33" stroke-width="7" stroke-linecap="round"/>
  </g>
</svg>
